<svg width="48" height="49" viewBox="0 0 48 49" fill="none" xmlns="http://www.w3.org/2000/svg">
<rect y="0.0175781" width="48" height="48" rx="18" fill="#EDF0EE"/>
<g clip-path="url(#clip0_765_3956)">
<path d="M24.0001 18C23.209 18 22.4356 18.2346 21.7778 18.6741C21.12 19.1136 20.6074 19.7384 20.3046 20.4693C20.0019 21.2002 19.9226 22.0044 20.077 22.7804C20.2313 23.5563 20.6123 24.269 21.1717 24.8284C21.7311 25.3878 22.4438 25.7688 23.2198 25.9231C23.9957 26.0775 24.8 25.9983 25.5309 25.6955C26.2618 25.3928 26.8865 24.8801 27.326 24.2223C27.7655 23.5645 28.0001 22.7911 28.0001 22C28.0001 20.9391 27.5787 19.9217 26.8286 19.1716C26.0784 18.4214 25.061 18 24.0001 18ZM24.0001 24C23.6046 24 23.2179 23.8827 22.889 23.6629C22.5601 23.4432 22.3037 23.1308 22.1524 22.7654C22.001 22.3999 21.9614 21.9978 22.0386 21.6098C22.1157 21.2219 22.3062 20.8655 22.5859 20.5858C22.8656 20.3061 23.222 20.1156 23.6099 20.0384C23.9979 19.9613 24.4 20.0009 24.7655 20.1522C25.1309 20.3036 25.4433 20.56 25.6631 20.8889C25.8828 21.2178 26.0001 21.6044 26.0001 22C26.0001 22.5304 25.7894 23.0391 25.4143 23.4142C25.0393 23.7893 24.5306 24 24.0001 24Z" fill="#9CA69D"/>
<path d="M23.9999 36.0001C23.1579 36.0044 22.3271 35.8069 21.577 35.4241C20.827 35.0413 20.1795 34.4844 19.6889 33.8C15.8779 28.543 13.9449 24.591 13.9449 22.053C13.9449 19.3863 15.0043 16.8288 16.89 14.9431C18.7757 13.0574 21.3332 11.998 23.9999 11.998C26.6667 11.998 29.2242 13.0574 31.1099 14.9431C32.9956 16.8288 34.0549 19.3863 34.0549 22.053C34.0549 24.591 32.1219 28.543 28.3109 33.8C27.8204 34.4844 27.1729 35.0413 26.4229 35.4241C25.6728 35.8069 24.842 36.0044 23.9999 36.0001ZM23.9999 14.181C21.9124 14.1834 19.911 15.0138 18.4348 16.4899C16.9587 17.9661 16.1283 19.9675 16.1259 22.055C16.1259 24.065 18.0189 27.782 21.4549 32.521C21.7466 32.9228 22.1293 33.2498 22.5717 33.4753C23.014 33.7008 23.5034 33.8183 23.9999 33.8183C24.4964 33.8183 24.9859 33.7008 25.4282 33.4753C25.8706 33.2498 26.2533 32.9228 26.5449 32.521C29.9809 27.782 31.8739 24.065 31.8739 22.055C31.8716 19.9675 31.0412 17.9661 29.5651 16.4899C28.0889 15.0138 26.0875 14.1834 23.9999 14.181Z" fill="#9CA69D"/>
</g>
<defs>
<clipPath id="clip0_765_3956">
<rect width="24" height="24" fill="white" transform="translate(12 12)"/>
</clipPath>
</defs>
</svg>
