<svg width="32" height="32" viewBox="0 0 32 32" fill="none" xmlns="http://www.w3.org/2000/svg">
<g clip-path="url(#clip0_151_3004)">
<path d="M26.5333 4.12148C26.3694 3.41702 26.0639 2.75326 25.6354 2.17057C25.2069 1.58789 24.6643 1.09845 24.0407 0.732023C23.4171 0.365598 22.7255 0.129842 22.008 0.0390937C21.2904 -0.0516547 20.5619 0.00450053 19.8667 0.204144L17.568 0.861478C16.9857 1.02884 16.4494 1.3271 16 1.73348C15.5506 1.3271 15.0143 1.02884 14.432 0.861478L12.1333 0.204144C11.4386 0.00554107 10.7107 -0.0498137 9.99392 0.0414402C9.27712 0.132694 8.58634 0.368653 7.96351 0.734995C7.34068 1.10134 6.79878 1.59042 6.37072 2.17256C5.94266 2.7547 5.63735 3.41776 5.47333 4.12148C3.93973 4.4005 2.55238 5.20809 1.55244 6.40387C0.552503 7.59966 0.00319465 9.10804 0 10.6668L0 20.0001C0.00211714 21.7676 0.705176 23.4621 1.95496 24.7119C3.20474 25.9616 4.89921 26.6647 6.66667 26.6668H14.6667V29.3335H10.6667C10.313 29.3335 9.97391 29.474 9.72386 29.724C9.47381 29.9741 9.33333 30.3132 9.33333 30.6668C9.33333 31.0204 9.47381 31.3596 9.72386 31.6096C9.97391 31.8597 10.313 32.0001 10.6667 32.0001H21.3333C21.687 32.0001 22.0261 31.8597 22.2761 31.6096C22.5262 31.3596 22.6667 31.0204 22.6667 30.6668C22.6667 30.3132 22.5262 29.9741 22.2761 29.724C22.0261 29.474 21.687 29.3335 21.3333 29.3335H17.3333V26.6668H25.3333C27.1008 26.6647 28.7953 25.9616 30.045 24.7119C31.2948 23.4621 31.9979 21.7676 32 20.0001V10.6668C31.9971 9.10899 31.4487 7.60138 30.4501 6.40573C29.4515 5.21007 28.0657 4.40188 26.5333 4.12148ZM17.3333 4.70814C17.3335 4.41856 17.4279 4.1369 17.6023 3.90573C17.7767 3.67456 18.0216 3.50645 18.3 3.42681L20.6 2.76948C20.9969 2.65595 21.4148 2.63613 21.8206 2.71156C22.2265 2.787 22.6093 2.95565 22.9389 3.20421C23.2685 3.45278 23.5359 3.77447 23.7201 4.14396C23.9042 4.51346 24 4.92065 24 5.33348V10.5841C23.9982 11.1627 23.8087 11.7252 23.4601 12.187C23.1116 12.6488 22.6226 12.9851 22.0667 13.1455L17.3333 14.4975V4.70814ZM9.06667 3.20014C9.39564 2.95248 9.77766 2.78466 10.1826 2.70992C10.5875 2.63518 11.0043 2.65557 11.4 2.76948L13.7 3.42681C13.9784 3.50645 14.2233 3.67456 14.3977 3.90573C14.5721 4.1369 14.6665 4.41856 14.6667 4.70814V14.4975L9.93333 13.1455C9.37739 12.9851 8.88845 12.6488 8.53986 12.187C8.19128 11.7252 8.00185 11.1627 8 10.5841V5.33348C7.99864 4.91925 8.09444 4.51048 8.27968 4.13999C8.46493 3.76949 8.73447 3.44759 9.06667 3.20014ZM29.3333 20.0001C29.3333 21.061 28.9119 22.0784 28.1618 22.8286C27.4116 23.5787 26.3942 24.0001 25.3333 24.0001H6.66667C5.6058 24.0001 4.58839 23.5787 3.83824 22.8286C3.08809 22.0784 2.66667 21.061 2.66667 20.0001V10.6668C2.67008 9.84246 2.92811 9.0393 3.40545 8.36721C3.88279 7.69512 4.55612 7.18692 5.33333 6.91214V10.5841C5.3366 11.7419 5.71522 12.8674 6.4124 13.7918C7.10957 14.7161 8.08769 15.3895 9.2 15.7108L13.8013 17.0268C15.2394 17.4367 16.7633 17.4367 18.2013 17.0268L22.8027 15.7108C23.9145 15.389 24.892 14.7155 25.5887 13.7911C26.2853 12.8668 26.6636 11.7416 26.6667 10.5841V6.91214C27.4439 7.18692 28.1172 7.69512 28.5945 8.36721C29.0719 9.0393 29.3299 9.84246 29.3333 10.6668V20.0001Z" fill="#374957"/>
</g>
<defs>
<clipPath id="clip0_151_3004">
<rect width="32" height="32" fill="white"/>
</clipPath>
</defs>
</svg>
