<svg width="45" height="45" viewBox="0 0 45 45" fill="none" xmlns="http://www.w3.org/2000/svg">
<g clip-path="url(#clip0_151_3014)">
<path d="M30.5413 9.25351C29.6103 9.04533 28.6455 9.03962 27.7121 9.23677C26.7787 9.43392 25.8986 9.82932 25.1314 10.3962L20.8529 13.5558L19.5967 11.1006C19.1549 10.2356 18.4168 9.55814 17.5172 9.1919C16.6175 8.82566 15.6162 8.79501 14.6959 9.10554C13.7755 9.41608 12.9974 10.0471 12.5036 10.8835C12.0097 11.7199 11.8329 12.706 12.0055 13.6619L13.0244 19.3373L10.1156 21.4855C8.69509 22.5371 7.7497 24.1093 7.48681 25.8571C7.22392 27.6049 7.66499 29.3856 8.71328 30.8087L12.6737 36.1714C13.7254 37.592 15.2976 38.5373 17.0454 38.8002C18.7932 39.0631 20.5739 38.6221 21.9969 37.5738L36.2619 27.039C37.5488 26.0804 38.4488 24.6918 38.7983 23.1257C39.1478 21.5596 38.9235 19.92 38.1661 18.5054L34.9618 12.5842C34.5065 11.7448 33.8762 11.013 33.1135 10.4384C32.3509 9.86378 31.4737 9.4597 30.5413 9.25351ZM14.8188 34.5873L10.8584 29.2245C10.2282 28.3711 9.96275 27.3023 10.1205 26.2533C10.2783 25.2042 10.8464 24.2608 11.6998 23.6306L13.8449 22.0464L22.5579 33.8445L20.4128 35.4287C19.5594 36.0589 18.4906 36.3243 17.4415 36.1665C16.3925 36.0087 15.4491 35.4406 14.8188 34.5873ZM32.6103 13.8551L35.8135 19.7771C36.2683 20.6246 36.4038 21.6073 36.1954 22.5463C35.987 23.4853 35.4484 24.3183 34.6777 24.8939L24.703 32.2603L15.7793 20.1769C15.8153 20.0142 15.8206 19.8462 15.7947 19.6815L14.6296 13.1909C14.6004 12.967 14.6247 12.7395 14.7005 12.5268C14.7763 12.3142 14.9015 12.1226 15.0658 11.9678C15.2301 11.813 15.4288 11.6994 15.6455 11.6363C15.8622 11.5732 16.0909 11.5624 16.3126 11.6049C16.5084 11.6496 16.692 11.737 16.8502 11.8608C17.0085 11.9847 17.1374 12.1419 17.2278 12.3213L19.1962 16.1717C19.2846 16.3434 19.4093 16.4938 19.5615 16.6126C19.7138 16.7314 19.8901 16.8157 20.0781 16.8597C20.2662 16.9037 20.4615 16.9063 20.6507 16.8673C20.8398 16.8283 21.0183 16.7487 21.1737 16.634L26.7155 12.5413C27.176 12.2011 27.7042 11.9638 28.2644 11.8453C28.8245 11.7268 29.4036 11.7299 29.9624 11.8544C30.5212 11.979 31.0468 12.222 31.5036 12.5672C31.9604 12.9123 32.3378 13.3515 32.6103 13.8551Z" fill="#FDFDFD"/>
</g>
<defs>
<clipPath id="clip0_151_3014">
<rect width="32" height="32" fill="white" transform="translate(0 19.0101) rotate(-36.4462)"/>
</clipPath>
</defs>
</svg>
