<svg width="32" height="32" viewBox="0 0 32 32" fill="none" xmlns="http://www.w3.org/2000/svg">
<g clip-path="url(#clip0_151_2999)">
<path d="M9.72391 2.78797L7.19991 5.31331L2.27591 0.39064C2.02444 0.147762 1.68764 0.0133699 1.33804 0.0164078C0.988448 0.0194457 0.654032 0.159671 0.406821 0.406882C0.15961 0.654093 0.0193847 0.988509 0.0163468 1.3381C0.0133089 1.6877 0.147701 2.0245 0.390579 2.27597L5.31325 7.19997L2.78791 9.72397C2.60134 9.9106 2.47434 10.1484 2.423 10.4073C2.37166 10.6661 2.39829 10.9344 2.49952 11.1781C2.60074 11.4218 2.77201 11.63 2.99163 11.7763C3.21125 11.9226 3.46935 12.0004 3.73325 12H10.0852C10.593 12 11.0801 11.7983 11.4391 11.4392C11.7982 11.0801 11.9999 10.5931 11.9999 10.0853V3.73331C12.0004 3.46941 11.9225 3.21131 11.7762 2.99169C11.6299 2.77207 11.4217 2.6008 11.178 2.49958C10.9343 2.39835 10.666 2.37173 10.4072 2.42306C10.1483 2.4744 9.91054 2.6014 9.72391 2.78797Z" fill="white"/>
<path d="M26.6867 24.8L29.212 22.2747C29.3981 22.088 29.5247 21.8503 29.5758 21.5917C29.6269 21.333 29.6001 21.0651 29.499 20.8216C29.3978 20.5782 29.2267 20.3702 29.0074 20.224C28.7881 20.0777 28.5303 19.9998 28.2667 20H21.9147C21.4069 20 20.9199 20.2017 20.5608 20.5608C20.2017 20.9199 20 21.4069 20 21.9147V28.2667C19.9998 28.5304 20.0778 28.7884 20.2242 29.0078C20.3707 29.2272 20.5789 29.3983 20.8225 29.4993C21.0662 29.6004 21.3343 29.6269 21.593 29.5755C21.8518 29.5241 22.0895 29.3972 22.276 29.2107L24.8 26.6867L29.7227 31.6093C29.9741 31.8522 30.3109 31.9866 30.6605 31.9836C31.0101 31.9805 31.3445 31.8403 31.5918 31.5931C31.839 31.3459 31.9792 31.0115 31.9822 30.6619C31.9853 30.3123 31.8509 29.9755 31.608 29.724L26.6867 24.8Z" fill="white"/>
<path d="M21.9146 12H28.2666C28.5304 12.0002 28.7883 11.9221 29.0077 11.7757C29.2271 11.6293 29.3982 11.4211 29.4993 11.1775C29.6003 10.9338 29.6268 10.6656 29.5755 10.4069C29.5241 10.1482 29.3971 9.91052 29.2106 9.72397L26.6866 7.19997L31.6093 2.2773C31.8595 2.02729 32.0001 1.68813 32.0002 1.33444C32.0003 0.980747 31.8599 0.641491 31.6099 0.391303C31.3599 0.141115 31.0208 0.000491321 30.6671 0.000366294C30.3134 0.000241267 29.9741 0.140626 29.7239 0.390636L24.8 5.3133L22.276 2.78797C22.0893 2.6014 21.8515 2.4744 21.5927 2.42306C21.3338 2.37172 21.0656 2.39835 20.8219 2.49957C20.5782 2.6008 20.37 2.77207 20.2237 2.99169C20.0773 3.21131 19.9995 3.46941 20 3.7333V10.0853C20 10.5931 20.2017 11.0801 20.5608 11.4392C20.9198 11.7982 21.4068 12 21.9146 12Z" fill="white"/>
<path d="M10.0854 20H3.73339C3.46961 19.9998 3.21169 20.0778 2.99228 20.2242C2.77286 20.3707 2.6018 20.5789 2.50074 20.8225C2.39968 21.0662 2.37317 21.3343 2.42455 21.593C2.47593 21.8518 2.6029 22.0894 2.78939 22.276L5.31339 24.8L0.390724 29.724C0.263377 29.847 0.161801 29.9941 0.0919222 30.1568C0.0220435 30.3194 -0.0147381 30.4944 -0.0162766 30.6714C-0.017815 30.8485 0.0159206 31.024 0.0829618 31.1879C0.150003 31.3518 0.249007 31.5006 0.374197 31.6258C0.499388 31.751 0.648257 31.85 0.812119 31.9171C0.975981 31.9841 1.15155 32.0178 1.32859 32.0163C1.50563 32.0148 1.68059 31.978 1.84326 31.9081C2.00594 31.8382 2.15306 31.7366 2.27606 31.6093L7.20006 26.6866L9.72539 29.212C9.91209 29.3981 10.1498 29.5247 10.4084 29.5758C10.667 29.6268 10.935 29.6001 11.1784 29.4989C11.4219 29.3978 11.6298 29.2267 11.7761 29.0074C11.9223 28.788 12.0003 28.5303 12.0001 28.2666V21.9147C12.0001 21.4069 11.7983 20.9199 11.4393 20.5608C11.0802 20.2017 10.5932 20 10.0854 20Z" fill="white"/>
</g>
<defs>
<clipPath id="clip0_151_2999">
<rect width="32" height="32" fill="white"/>
</clipPath>
</defs>
</svg>
