<svg width="275" height="265" viewBox="0 0 275 265" fill="none" xmlns="http://www.w3.org/2000/svg">
<path d="M208.986 153.936C208.986 153.936 209.286 154.036 209.886 154.236C210.486 154.436 211.386 154.736 212.586 155.036C214.986 155.636 218.586 156.236 223.286 155.836C225.586 155.636 228.186 155.136 230.886 154.336C233.586 153.536 236.586 152.536 239.486 151.036C245.386 148.136 251.586 143.436 256.886 136.936C258.186 135.336 259.386 133.536 259.986 131.436C260.586 129.436 260.586 127.036 259.486 125.036C258.386 123.036 256.186 121.836 253.886 121.636C251.586 121.336 249.186 121.936 246.986 122.936C245.886 123.436 244.686 123.936 243.486 124.336C242.286 124.636 240.886 124.736 239.586 124.336C238.286 123.936 237.086 123.036 236.686 121.736C236.286 120.436 236.586 118.936 237.386 117.836C238.086 116.636 239.186 115.836 240.386 115.136C241.586 114.536 242.886 114.136 244.186 113.636C246.686 112.736 249.186 111.636 251.586 110.336C253.986 109.036 256.386 107.436 258.586 105.736C259.686 104.836 260.786 103.936 261.686 102.836C262.586 101.736 263.186 100.436 263.186 99.036C263.186 97.636 262.286 96.436 260.986 95.736C259.786 95.036 258.286 94.736 256.886 94.736C255.386 94.636 253.886 94.636 252.386 94.236C250.886 93.836 249.486 92.936 248.786 91.336C248.486 90.536 248.586 89.636 248.986 88.936C249.386 88.236 250.086 87.736 250.686 87.336C251.886 86.436 253.186 85.536 254.386 84.636C256.786 82.736 258.986 80.636 261.086 78.336C263.086 76.036 265.186 73.636 266.486 70.736C267.086 69.336 267.486 67.736 267.286 66.236C267.186 64.736 266.486 63.236 265.386 62.136C263.286 59.936 259.886 58.936 256.886 59.636C253.886 60.236 251.186 62.136 249.186 64.436C245.086 69.036 243.086 75.036 239.686 80.136C238.886 81.436 237.886 82.636 236.886 83.736C236.386 84.236 235.786 84.836 235.086 85.236C234.386 85.636 233.486 85.836 232.686 85.436C231.986 85.036 231.586 84.236 231.386 83.436C231.186 82.636 231.286 81.936 231.286 81.136C231.286 80.436 231.386 79.736 231.186 79.036C230.986 78.336 230.586 77.736 230.086 77.336C229.086 76.436 227.686 75.936 226.286 75.936C224.886 76.036 223.586 76.736 222.686 77.636C221.686 78.536 220.886 79.736 220.386 81.036C219.886 82.336 219.686 83.636 219.486 85.036C219.286 87.736 219.386 90.536 219.286 93.236C219.286 95.936 219.286 98.636 219.286 101.236C219.186 103.836 219.486 106.536 218.586 109.036C218.186 110.236 217.286 111.436 215.986 111.836C214.686 112.336 213.386 112.136 212.186 111.736C209.786 110.836 207.786 109.336 206.286 107.536C205.486 106.636 204.786 105.636 204.286 104.636C203.686 103.636 203.286 102.536 202.586 101.636C201.986 100.736 201.086 99.936 200.086 99.636C199.086 99.336 197.986 99.536 196.986 99.936C195.986 100.436 195.186 101.036 194.586 101.936C193.986 102.736 193.586 103.736 193.386 104.736C192.986 106.736 193.186 108.836 192.986 110.836C192.886 112.836 192.886 114.736 192.886 116.636C192.986 120.436 193.286 123.936 193.886 127.236C194.386 130.536 195.186 133.536 196.086 136.236C196.486 137.636 197.086 138.836 197.586 140.036C198.186 141.236 198.686 142.336 199.286 143.336C201.586 147.436 204.086 150.136 205.986 151.736C206.386 152.136 206.886 152.536 207.186 152.836C207.586 153.136 207.886 153.336 208.086 153.536C208.686 153.736 208.986 153.936 208.986 153.936C208.986 153.936 208.686 153.736 208.186 153.336C207.886 153.136 207.586 152.936 207.286 152.636C206.886 152.336 206.486 152.036 206.086 151.636C204.186 150.036 201.686 147.336 199.286 143.236C198.686 142.236 198.186 141.136 197.586 139.936C197.086 138.736 196.486 137.536 196.086 136.136C195.086 133.436 194.386 130.436 193.786 127.136C193.186 123.836 192.886 120.336 192.786 116.536C192.786 114.636 192.786 112.736 192.786 110.736C192.886 108.736 192.686 106.736 193.086 104.636C193.286 103.636 193.686 102.536 194.286 101.636C194.886 100.736 195.786 100.036 196.786 99.536C197.786 99.036 198.986 98.836 200.186 99.236C201.286 99.536 202.286 100.436 202.886 101.336C203.586 102.336 204.086 103.336 204.586 104.336C205.186 105.336 205.786 106.336 206.586 107.236C208.086 109.036 210.086 110.536 212.386 111.336C213.486 111.736 214.786 111.936 215.886 111.436C216.986 111.036 217.786 110.036 218.186 108.836C218.986 106.436 218.786 103.836 218.786 101.236C218.786 98.636 218.786 95.936 218.786 93.236C218.786 90.536 218.686 87.836 218.986 85.036C219.086 83.636 219.386 82.236 219.886 80.936C220.386 79.636 221.186 78.336 222.286 77.336C223.386 76.336 224.686 75.636 226.286 75.536C227.786 75.436 229.286 76.036 230.386 77.036C230.986 77.536 231.386 78.236 231.586 78.936C231.786 79.736 231.786 80.436 231.786 81.236C231.786 81.936 231.686 82.736 231.886 83.336C231.986 84.036 232.386 84.636 232.986 84.936C233.586 85.236 234.286 85.136 234.886 84.736C235.486 84.436 235.986 83.836 236.486 83.336C237.486 82.236 238.386 81.136 239.286 79.836C242.586 74.836 244.586 68.836 248.786 64.136C250.886 61.836 253.586 59.836 256.786 59.236C259.986 58.536 263.486 59.536 265.786 61.936C266.886 63.136 267.686 64.736 267.786 66.336C267.986 67.936 267.586 69.636 266.886 71.036C265.586 74.036 263.486 76.436 261.386 78.736C259.286 81.036 256.986 83.236 254.586 85.136C253.386 86.136 252.186 87.036 250.886 87.936C250.286 88.336 249.686 88.836 249.286 89.436C248.886 90.036 248.886 90.736 249.086 91.436C249.586 92.736 250.886 93.636 252.286 93.936C253.686 94.336 255.186 94.336 256.686 94.436C258.186 94.536 259.686 94.736 261.086 95.536C261.786 95.936 262.386 96.436 262.786 97.036C263.186 97.636 263.486 98.436 263.486 99.236C263.586 100.836 262.786 102.236 261.886 103.336C260.986 104.536 259.886 105.436 258.786 106.336C256.586 108.136 254.186 109.636 251.686 110.936C249.286 112.236 246.686 113.336 244.186 114.336C242.886 114.736 241.686 115.236 240.486 115.836C239.286 116.436 238.286 117.236 237.586 118.336C236.886 119.436 236.586 120.736 236.986 121.836C237.286 123.036 238.386 123.836 239.586 124.136C240.786 124.536 241.986 124.436 243.186 124.136C244.386 123.836 245.486 123.336 246.586 122.836C248.786 121.736 251.286 121.136 253.686 121.436C254.886 121.536 256.086 121.936 257.086 122.536C258.086 123.136 258.986 124.036 259.586 125.036C260.686 127.136 260.686 129.636 260.086 131.736C259.486 133.836 258.186 135.736 256.886 137.336C251.586 143.836 245.386 148.536 239.386 151.436C236.386 152.936 233.486 153.936 230.686 154.736C227.886 155.536 225.386 155.936 222.986 156.136C218.286 156.536 214.586 155.836 212.286 155.236C211.086 154.936 210.186 154.636 209.586 154.436C209.286 154.036 208.986 153.936 208.986 153.936Z" fill="#263238"/>
<path d="M263.486 61.436C263.486 61.436 263.386 61.536 263.186 61.736C262.986 61.936 262.686 62.136 262.386 62.436C261.686 63.036 260.686 63.936 259.286 65.136C256.686 67.536 252.986 71.136 248.986 76.036C246.986 78.536 244.886 81.236 242.686 84.336C240.486 87.336 238.186 90.636 235.886 94.136C233.586 97.636 231.286 101.436 229.186 105.536C228.186 107.536 227.186 109.736 226.286 111.836C225.286 114.036 224.386 116.236 223.386 118.436C219.486 127.336 216.086 136.036 213.586 144.036C211.086 152.136 209.586 159.536 208.886 165.936C208.186 172.236 208.286 177.436 208.486 181.036C208.586 182.836 208.686 184.236 208.886 185.136C208.886 185.536 208.986 185.936 208.986 186.236C208.986 186.436 208.986 186.636 208.986 186.636C208.986 186.636 208.986 186.536 208.886 186.236C208.886 185.936 208.786 185.636 208.686 185.136C208.586 184.236 208.386 182.836 208.186 181.036C207.886 177.436 207.786 172.236 208.386 165.936C208.986 159.536 210.486 152.036 212.986 143.936C215.386 135.836 218.886 127.136 222.686 118.236C223.686 116.036 224.586 113.836 225.586 111.636C226.586 109.436 227.486 107.336 228.586 105.236C230.686 101.136 232.986 97.336 235.386 93.836C237.686 90.336 240.086 87.036 242.286 84.036C244.486 81.036 246.586 78.236 248.686 75.736C252.786 70.836 256.486 67.236 259.186 64.936C260.486 63.736 261.586 62.836 262.286 62.336C262.686 62.036 262.886 61.836 263.086 61.636C263.386 61.436 263.486 61.436 263.486 61.436Z" fill="#263238"/>
<path d="M228.986 105.236C228.986 105.236 228.886 104.836 228.686 104.136C228.586 103.436 228.386 102.336 228.186 101.036C227.786 98.336 227.486 94.636 227.086 90.636C226.686 86.536 226.286 82.836 225.886 80.236C225.686 78.936 225.486 77.836 225.386 77.136C225.286 76.436 225.186 75.936 225.286 75.936C225.286 75.936 225.386 76.336 225.586 77.036C225.786 77.736 225.986 78.836 226.186 80.136C226.686 82.736 227.186 86.436 227.486 90.536C227.886 94.536 228.186 98.236 228.486 100.936C228.586 102.236 228.686 103.236 228.786 104.136C228.986 104.736 228.986 105.236 228.986 105.236Z" fill="#263238"/>
<path d="M263.386 99.1361C263.386 99.1361 262.886 99.2361 261.986 99.3361C261.086 99.4361 259.786 99.5361 258.286 99.6361C255.086 99.9361 250.786 100.536 246.086 101.336C241.286 102.236 237.086 103.136 233.986 103.936C232.486 104.336 231.186 104.636 230.386 104.936C229.486 105.136 229.086 105.236 229.086 105.236C229.086 105.236 229.486 105.036 230.386 104.736C231.186 104.436 232.486 104.036 233.986 103.636C237.086 102.736 241.286 101.736 246.086 100.836C250.886 99.9361 255.186 99.4361 258.386 99.2361C259.986 99.1361 261.286 99.0361 262.186 99.0361C262.886 99.0361 263.386 99.0361 263.386 99.1361Z" fill="#263238"/>
<path d="M213.586 143.236C213.586 143.236 213.486 143.136 213.386 142.836C213.186 142.536 213.086 142.136 212.786 141.636C212.286 140.536 211.586 138.936 210.786 136.936C209.186 132.936 207.086 127.436 204.886 121.336C202.686 115.236 200.686 109.636 199.086 105.636C198.286 103.736 197.686 102.136 197.286 100.936C197.086 100.436 196.886 100.036 196.786 99.6357C196.686 99.3357 196.586 99.1357 196.686 99.1357C196.686 99.1357 196.786 99.2357 196.886 99.5357C197.086 99.8357 197.186 100.236 197.486 100.736C197.986 101.836 198.686 103.436 199.486 105.436C201.086 109.436 203.186 114.936 205.386 121.036C207.586 127.136 209.586 132.736 211.186 136.736C211.986 138.636 212.586 140.236 212.986 141.436C213.186 141.936 213.386 142.336 213.486 142.736C213.586 143.136 213.586 143.236 213.586 143.236Z" fill="#263238"/>
<path d="M259.386 128.936C259.386 128.936 259.186 129.036 258.886 129.136C258.486 129.236 258.086 129.436 257.586 129.536C256.386 129.936 254.686 130.436 252.686 131.036C248.586 132.336 242.886 134.236 236.586 136.236C230.286 138.336 224.586 140.136 220.386 141.336C218.286 141.936 216.586 142.436 215.386 142.736C214.886 142.836 214.386 142.936 213.986 143.036C213.686 143.136 213.486 143.136 213.486 143.136C213.486 143.136 213.686 143.036 213.986 142.936C214.386 142.836 214.786 142.636 215.286 142.536C216.486 142.136 218.186 141.636 220.186 141.036C224.286 139.736 229.986 137.836 236.286 135.836C242.586 133.736 248.286 131.936 252.486 130.736C254.586 130.136 256.286 129.636 257.486 129.336C257.986 129.236 258.486 129.036 258.886 129.036C259.286 128.936 259.386 128.936 259.386 128.936Z" fill="#263238"/>
<path d="M184.686 92.936C187.686 93.036 190.486 94.736 192.486 97.036C194.486 99.336 195.686 102.136 196.386 105.136C197.886 110.736 196.886 117.436 195.186 123.036C189.086 120.836 185.386 114.236 183.686 110.836C181.186 105.336 179.686 93.936 184.686 92.936Z" fill="#98E2FF"/>
<path d="M203.986 129.836C202.086 127.036 202.086 123.236 203.586 120.236C205.086 117.236 208.086 115.136 211.286 114.136C212.786 113.736 214.486 113.536 215.786 114.436C216.986 115.236 217.486 116.836 217.286 118.336C217.086 119.736 216.386 121.136 215.486 122.236C212.586 126.136 208.986 129.436 203.986 129.836Z" fill="#98E2FF"/>
<path d="M204.486 148.636C204.486 148.636 204.386 148.236 204.186 147.436C203.986 146.636 203.786 145.536 203.586 144.236C203.086 141.536 202.386 137.736 202.986 133.436C203.586 129.236 205.286 125.636 207.086 123.436C207.986 122.336 208.786 121.636 209.386 121.136C209.686 120.936 209.986 120.736 210.086 120.636C210.286 120.536 210.386 120.436 210.386 120.436C210.486 120.536 208.986 121.436 207.286 123.636C205.586 125.736 203.986 129.336 203.386 133.436C202.786 137.636 203.486 141.436 203.886 144.136C204.086 145.536 204.286 146.636 204.386 147.336C204.486 148.236 204.486 148.636 204.486 148.636Z" fill="#263238"/>
<path d="M186.586 101.536C186.586 101.536 186.686 101.736 186.786 102.036C186.986 102.436 187.186 102.836 187.386 103.436C187.886 104.636 188.686 106.336 189.586 108.536C191.386 112.836 193.786 118.736 196.286 125.436C198.786 132.036 200.886 138.136 202.386 142.536C203.086 144.736 203.686 146.536 204.086 147.736C204.286 148.336 204.386 148.836 204.486 149.136C204.586 149.436 204.586 149.636 204.586 149.636C204.586 149.636 204.486 149.436 204.386 149.136C204.286 148.736 204.086 148.336 203.886 147.736C203.386 146.436 202.786 144.736 202.086 142.536C200.486 138.136 198.386 132.136 195.886 125.536C193.386 118.936 190.986 112.936 189.286 108.636C188.486 106.536 187.786 104.736 187.286 103.536C187.086 102.936 186.886 102.536 186.786 102.136C186.686 101.736 186.586 101.536 186.586 101.536Z" fill="#263238"/>
<path d="M197.386 136.136C193.886 129.936 187.186 125.736 180.086 125.136C178.286 125.036 176.086 125.236 175.286 126.936C174.486 128.536 175.486 130.436 176.786 131.836C181.886 137.436 190.486 139.436 197.486 136.636" fill="#98E2FF"/>
<path d="M182.786 130.036C182.786 130.036 183.186 130.036 183.886 130.136C184.286 130.136 184.686 130.236 185.186 130.336C185.686 130.436 186.286 130.536 186.886 130.636C187.486 130.836 188.186 130.936 188.986 131.236C189.686 131.436 190.486 131.736 191.286 132.136C192.886 132.836 194.486 133.836 196.086 135.036C197.686 136.236 198.986 137.636 200.086 139.036C200.586 139.736 201.086 140.436 201.486 141.036C201.886 141.636 202.186 142.336 202.486 142.936C202.786 143.536 202.986 144.036 203.186 144.536C203.386 145.036 203.486 145.436 203.586 145.836C203.786 146.536 203.886 146.936 203.886 146.936C203.786 146.936 203.386 145.436 202.186 143.136C201.886 142.536 201.586 141.936 201.086 141.336C200.686 140.636 200.186 140.036 199.686 139.336C198.586 138.036 197.286 136.636 195.786 135.436C194.286 134.236 192.586 133.336 191.086 132.536C190.286 132.236 189.586 131.836 188.886 131.636C188.186 131.336 187.486 131.136 186.886 131.036C184.386 130.236 182.786 130.136 182.786 130.036Z" fill="#263238"/>
<path d="M48.109 181.455L32.0217 211.074L33.3465 139.154C33.9143 132.53 36.564 128.177 37.7942 126.474C39.0244 124.865 40.16 123.162 41.6741 121.837C43.5667 120.228 46.1217 118.241 47.8251 117.484C50.0016 116.632 50.0016 113.699 48.0144 113.131C46.0271 112.658 40.0653 114.834 34.8606 120.134C29.6559 125.433 30.7915 113.888 31.17 109.724C31.5485 105.56 32.0217 92.5013 30.7915 91.3657C28.9935 89.757 26.9116 91.3657 26.6277 95.6241C26.3438 99.8825 24.7351 112.468 22.4639 112.185C20.2874 111.995 22.3693 90.514 22.3693 90.514C22.3693 90.514 23.5995 85.9717 21.0445 85.5932C16.4075 84.9308 15.9344 107.832 15.9344 110.008C15.9344 111.522 13.474 111.333 13.5686 109.724C13.6632 108.021 16.1236 88.4321 11.4867 87.6751C7.89072 87.1073 10.8243 106.507 8.07998 110.387C5.33567 114.266 7.32293 95.4348 3.9162 95.0563C2.59136 94.9617 1.64505 94.9617 2.02358 105.939C2.21284 111.806 4.86251 120.607 4.38936 131.963L4.29473 134.896C1.55042 156.188 -10.657 267.38 31.4539 264.352C31.4539 264.352 63.4393 259.904 81.1353 201.8L48.109 181.455Z" fill="#FFBE9D"/>
<path d="M12.0544 127.136C12.0544 127.231 12.7169 127.325 13.8524 127.893C14.8934 128.461 16.3129 129.502 16.9753 131.3L17.2592 132.152L17.6377 131.3C18.1108 130.259 18.8679 129.123 19.8142 128.177C21.8961 126.095 24.4511 125.054 26.3438 124.676C28.2364 124.297 29.4666 124.486 29.4666 124.392C29.4666 124.297 28.2364 123.919 26.2491 124.108C24.2619 124.297 21.4229 125.338 19.2464 127.609C18.2055 128.65 17.4484 129.88 16.9753 131.016H17.6377C16.786 129.029 15.1773 127.893 14.0417 127.42C12.8115 126.947 12.0544 127.041 12.0544 127.136Z" fill="#EB996E"/>
<path d="M240.211 195.271L258.096 228.96L274.467 260.377H237.466L214.565 213.156" fill="#FFBE9D"/>
<path d="M100.061 260.377C103.563 248.359 101.292 246.466 97.5065 234.543L89.3682 208.992L71.5775 235.3L33.725 204.923L46.3109 176.628C69.7795 123.446 107.821 127.231 107.821 127.231L156.272 117.957C156.272 117.957 187.312 115.118 207.373 133.382C213.903 139.344 243.617 192.905 243.617 192.905L207.089 218.55L198.099 203.22L195.639 223.944C193.652 235.3 193.841 249.778 198.099 260.377" fill="#E8505B"/>
<path d="M95.8032 145.306C95.8032 145.4 87.8541 147.198 77.9179 149.28C67.9816 151.362 59.9379 152.876 59.9379 152.687C59.9379 152.592 67.887 150.794 77.8232 148.712C87.7595 146.725 95.8032 145.116 95.8032 145.306Z" fill="#FAFAFA"/>
<path d="M202.453 129.975C202.453 130.07 194.598 131.678 184.946 133.476C175.199 135.274 167.344 136.599 167.344 136.505C167.344 136.41 175.199 134.801 184.851 133.003C194.504 131.205 202.453 129.88 202.453 129.975Z" fill="#FAFAFA"/>
<path d="M217.404 147.293C217.404 147.387 205.197 150.132 190.15 153.444C175.104 156.661 162.802 159.216 162.802 159.122C162.802 159.027 175.009 156.283 190.056 152.971C205.102 149.658 217.31 147.198 217.404 147.293Z" fill="#FAFAFA"/>
<path d="M232.356 173.979C232.356 173.979 232.167 173.979 231.883 174.073C231.504 174.168 231.031 174.262 230.369 174.357C229.044 174.546 227.057 174.925 224.596 175.303C219.581 176.155 212.294 177.291 203.304 178.805C185.324 181.644 160.531 185.618 133.088 190.066C105.645 194.419 80.8514 198.299 62.8714 200.948C53.8815 202.273 46.5949 203.409 41.5794 204.071C39.0244 204.45 37.1317 204.639 35.8069 204.828C34.4821 205.018 33.725 205.018 33.8196 204.923C33.8196 204.923 34.4821 204.923 35.8069 204.734C37.1317 204.544 39.119 204.261 41.5794 203.882C46.5949 203.125 53.8815 201.989 62.8714 200.57C80.8514 197.731 105.645 193.851 133.088 189.498C160.531 185.145 185.324 181.265 203.304 178.426C212.294 177.007 219.581 175.871 224.596 175.114C227.057 174.736 229.044 174.452 230.369 174.262C231.031 174.168 231.504 174.073 231.883 174.073C232.167 173.979 232.356 173.979 232.356 173.979Z" fill="#FAFAFA"/>
<path d="M196.68 215.427C196.68 215.522 174.158 218.645 146.336 222.241C118.515 225.837 95.8978 228.676 95.8978 228.581C95.8978 228.487 118.42 225.364 146.242 221.768C174.063 218.077 196.585 215.238 196.68 215.427Z" fill="#FAFAFA"/>
<path d="M192.327 250.82C192.327 250.914 172.171 250.914 147.283 250.82C122.394 250.63 102.238 250.441 102.238 250.346C102.238 250.252 122.394 250.252 147.283 250.346C172.171 250.441 192.327 250.725 192.327 250.82Z" fill="#FAFAFA"/>
<path d="M109.714 167.166C109.714 167.166 109.525 167.26 109.052 167.355C108.578 167.449 107.916 167.544 107.159 167.639C105.456 167.923 103.09 168.301 100.251 168.774C94.3837 169.721 86.3401 171.045 77.5394 172.749C68.644 174.452 60.695 176.061 54.9225 177.291C52.0836 177.859 49.7178 178.427 48.1091 178.805C47.352 178.994 46.6896 179.089 46.2164 179.184C45.7433 179.278 45.554 179.278 45.554 179.278C45.554 179.278 45.7433 179.184 46.2164 179.089C46.6896 178.994 47.2574 178.805 48.0144 178.616C49.6232 178.237 51.9889 177.67 54.8279 177.007C60.6004 175.682 68.5494 173.979 77.4448 172.276C86.3401 170.667 94.3837 169.342 100.251 168.49C103.184 168.112 105.55 167.733 107.159 167.544C107.916 167.449 108.578 167.355 109.052 167.355C109.43 167.166 109.714 167.166 109.714 167.166Z" fill="#FAFAFA"/>
<path d="M151.352 14.5254C150.216 28.5308 168.953 38.4671 167.344 52.4725C166.871 56.3524 164.884 60.6108 166.871 63.9229C169.332 67.8974 175.294 67.0457 179.741 68.8437C185.135 71.0203 187.879 77.4552 187.028 83.1331C186.176 88.9056 182.485 93.8264 178.132 97.6116C171.319 103.573 162.518 107.359 153.528 108.21C149.27 108.589 144.917 108.305 141.132 106.318C137.346 104.425 134.413 100.545 134.318 96.2868" fill="#263238"/>
<path d="M153.15 126.001C150.689 114.078 148.229 101.397 148.229 101.397C148.229 101.397 163.086 95.5299 162.045 74.8056C161.004 55.0277 148.513 11.4027 148.513 11.4027C124.382 7.04963 99.3992 18.6893 87.381 39.6974L109.241 136.505C111.796 147.766 123.435 154.485 135.454 151.741C147.661 148.902 155.61 137.357 153.15 126.001Z" fill="#FFBE9D"/>
<path d="M150.122 47.1735C150.5 48.4983 149.554 49.9178 148.229 50.2963C146.809 50.6748 145.39 49.9178 145.106 48.4983C144.728 47.1735 145.674 45.754 146.999 45.3755C148.418 44.997 149.838 45.8486 150.122 47.1735Z" fill="#263238"/>
<path d="M153.055 44.6183C152.771 44.9968 150.595 43.9559 147.756 44.6183C145.011 45.1861 143.213 46.9841 142.835 46.7948C142.646 46.7002 142.835 46.0378 143.592 45.1861C144.349 44.3344 145.674 43.3881 147.377 43.1042C149.081 42.7257 150.689 43.1042 151.636 43.5774C152.771 43.8613 153.15 44.4291 153.055 44.6183Z" fill="#263238"/>
<path d="M121.826 53.703C122.205 55.0279 121.259 56.4473 119.934 56.8259C118.514 57.2044 117.095 56.4474 116.811 55.0279C116.433 53.703 117.379 52.2836 118.704 51.9051C120.123 51.5265 121.543 52.2836 121.826 53.703Z" fill="#263238"/>
<path d="M124.666 51.0534C124.382 51.4319 122.111 50.3909 119.366 51.0534C116.622 51.6211 114.824 53.4191 114.445 53.2299C114.256 53.1352 114.445 52.4728 115.203 51.6212C115.96 50.7695 117.284 49.8232 118.988 49.5393C120.691 49.1607 122.3 49.5393 123.246 50.0124C124.382 50.2963 124.855 50.8641 124.666 51.0534Z" fill="#263238"/>
<path d="M139.428 68.9386C139.428 68.7494 141.037 68.0869 143.781 67.1406C144.444 66.9514 145.106 66.6675 145.106 66.0997C145.201 65.5319 144.727 64.8695 144.16 64.1124C143.119 62.5037 142.078 60.895 140.942 59.1916C136.4 52.0943 132.993 46.2271 133.277 46.0379C133.561 45.8486 137.441 51.4319 141.983 58.5292C143.119 60.2326 144.16 61.9359 145.106 63.5447C145.579 64.3017 146.242 65.1534 146.052 66.289C145.958 66.8567 145.579 67.3299 145.106 67.6138C144.727 67.8031 144.254 67.8977 143.97 67.9923C141.226 68.7494 139.428 69.1279 139.428 68.9386Z" fill="#263238"/>
<path d="M148.324 101.397C148.324 101.397 134.981 105.088 119.84 99.8828C119.84 99.8828 129.303 112.28 148.986 106.128L148.324 101.397Z" fill="#EB996E"/>
<path d="M139.617 75.9412C138.387 74.8056 136.4 74.5217 134.697 74.9949C133.561 75.3734 132.425 76.2251 131.858 77.3606C131.29 78.4962 131.479 79.9157 132.331 80.6727C133.277 81.5244 134.886 81.5244 136.116 80.862C137.346 80.1996 138.293 79.064 139.239 78.0231C139.523 77.7392 139.712 77.3606 139.901 77.0767C139.996 76.6982 139.996 76.2251 139.712 76.0358" fill="#E8505B"/>
<path d="M131.668 72.6291C132.142 72.5345 132.804 75.5627 135.832 77.0768C138.86 78.6855 141.983 77.6446 142.078 78.1177C142.172 78.307 141.51 78.8748 140.185 79.1587C138.86 79.4426 136.873 79.4426 134.98 78.4963C133.088 77.5499 132.047 75.9412 131.763 74.711C131.29 73.4808 131.479 72.6291 131.668 72.6291Z" fill="#263238"/>
<path d="M99.4938 60.3271C97.2227 60.3271 94.9515 60.8949 93.1535 62.1252C91.2609 63.3554 89.7468 65.248 89.3683 67.4245C88.8951 69.601 89.4629 71.9668 90.6931 73.8594C91.8287 75.752 93.6267 77.2661 95.5193 78.4963C96.8441 79.348 98.3582 80.1051 99.967 80.2944C101.576 80.4836 103.279 79.9158 104.32 78.6856" fill="#FFBE9D"/>
<path d="M101.008 73.5752C101.292 73.5752 100.629 75.0893 98.5476 74.9946C97.5066 74.9 96.4657 74.3322 95.7086 73.3859C94.9516 72.4396 94.2892 71.3986 93.9106 70.0738C93.5321 68.749 93.5321 67.2349 94.0053 66.0993C94.4784 64.8691 95.5194 64.0174 96.4657 63.8281C98.4529 63.355 99.3992 64.5852 99.21 64.6798C99.1153 64.8691 98.169 64.3013 96.8442 64.9637C95.614 65.4369 94.7623 67.5188 95.5194 69.6007C96.1818 71.7772 97.5066 73.5752 98.8314 73.8591C100.062 74.2376 100.913 73.4805 101.008 73.5752Z" fill="#EB996E"/>
<path d="M142.646 6.95478C145.674 12.6327 144.349 20.2978 139.617 24.5562C134.791 28.9092 127.883 29.477 121.637 31.275C115.392 33.073 108.768 37.6153 109.052 44.1449C109.241 48.0247 111.985 51.81 111.039 55.5952C109.903 60.0429 104.225 61.9355 102.617 66.1939C100.062 73.102 109.43 79.3477 109.052 86.6343C108.768 90.9873 105.077 94.5833 104.698 98.9364C104.131 105.087 110.187 111.712 106.78 116.916C104.225 120.891 98.1689 120.323 93.7213 118.62C89.2736 116.916 84.4474 114.361 79.9997 116.159C77.3501 117.2 75.4574 119.566 73.0917 121.175C68.7386 124.108 62.6822 124.108 58.4238 121.269C54.0708 118.43 51.705 112.847 52.6513 107.737C53.4084 103.952 55.6795 100.734 57.4775 97.3276C59.3701 93.9209 60.7896 90.041 59.654 86.3504C58.8023 83.5115 56.6258 81.3349 54.8278 78.9692C53.0298 76.6034 51.705 73.4806 52.8406 70.7362C54.8278 66.0047 62.4929 66.3832 65.2373 62.0302C69.0225 56.0684 60.2218 48.4033 62.493 41.6844C65.048 34.0193 78.5803 35.4388 81.1353 27.7737C82.0816 25.0293 81.1353 21.9065 81.4192 19.0676C82.0816 12.4434 89.0843 8.18498 95.7085 6.95478C102.333 5.8192 109.146 6.67088 115.676 4.96751C119.177 4.0212 122.489 2.31784 125.991 1.18226C129.492 0.0466887 133.372 -0.521099 136.778 0.709108C140.185 1.93931 143.024 5.62993 142.267 9.22592" fill="#263238"/>
<path d="M139.712 21.1495C143.497 27.7737 150.5 32.4107 158.071 33.4516C157.976 28.3415 157.692 23.2314 156.273 18.4052C154.948 13.4844 152.298 8.84748 148.324 5.72465C144.349 2.60182 138.766 1.37161 134.034 3.16961" fill="#263238"/>
<path d="M164.032 118.431C165.736 118.62 175.293 174.831 138.576 181.077C103.752 186.944 93.0588 129.313 93.0588 129.313C93.0588 129.313 116.433 112.09 164.032 118.431Z" fill="#FFBE9D"/>
<path d="M142.93 41.4951C143.119 41.8736 145.012 41.3058 147.377 41.0219C149.743 40.738 151.73 40.9273 151.825 40.4541C151.92 40.0756 149.932 39.1293 147.188 39.4132C144.538 39.7917 142.74 41.1165 142.93 41.4951Z" fill="#263238"/>
<path d="M114.919 45.8482C115.013 45.7536 115.013 45.6589 114.919 45.375V45.8482C115.581 45.4697 117.095 44.618 119.177 44.2395C121.827 43.6717 124.003 44.3341 124.193 43.8609C124.287 43.6717 123.814 43.1985 122.868 42.9146C121.921 42.5361 120.407 42.3468 118.893 42.7254C116.527 43.1985 114.919 44.7126 114.54 45.4697L114.351 45.8482L114.446 45.9428C114.635 45.9428 114.824 45.9428 114.919 45.8482Z" fill="#263238"/>
<path d="M99.0206 44.2394C99.0206 44.3341 96.1817 44.2394 92.5857 43.8609C89.0844 43.4824 86.2454 43.1039 86.2454 43.0092C86.2454 42.9146 89.0844 43.0092 92.6803 43.3878C96.1817 43.6717 99.0206 44.1448 99.0206 44.2394Z" fill="#E8505B"/>
<path d="M95.8978 47.8355C95.8978 47.9301 93.7213 48.214 91.0716 48.1194C88.4219 48.0247 86.2454 47.4569 86.2454 47.3623C86.2454 47.2677 88.4219 47.5516 91.0716 47.6462C93.7213 47.7408 95.8978 47.6462 95.8978 47.8355Z" fill="#E8505B"/>
<path d="M142.93 18.4053C142.93 18.4053 142.835 18.5945 142.74 18.9731C142.551 19.3516 142.267 19.9194 141.794 20.4872C140.753 21.7174 138.671 22.7583 135.927 23.0422C134.602 23.2315 132.993 23.1368 131.385 22.9476C129.776 22.7583 128.073 22.4744 126.275 22.2852C124.477 22.1905 122.584 22.1905 120.786 22.8529C118.988 23.5154 117.474 24.9348 116.244 26.5436C114.919 28.1523 113.878 29.8557 112.553 31.3698C111.891 32.1268 111.228 32.7892 110.471 33.4516C109.714 34.0194 108.862 34.4926 108.011 34.8711C106.307 35.5335 104.604 35.9121 102.995 36.1959C101.386 36.4798 99.967 36.7637 98.7368 37.2369C96.1818 38.1832 94.4784 39.6973 93.816 41.1168C93.1536 42.4416 93.2482 43.3879 93.1536 43.3879C93.1536 43.3879 93.1536 43.1987 93.1536 42.7255C93.2482 42.347 93.2482 41.6846 93.6267 41.0221C94.2891 39.6027 95.9925 37.9939 98.5476 36.953C99.8724 36.4798 101.292 36.196 102.901 35.8174C104.509 35.5335 106.118 35.155 107.821 34.4926C109.43 33.8302 110.944 32.6 112.174 31.0859C113.405 29.5718 114.54 27.8684 115.865 26.2597C117.19 24.6509 118.799 23.1368 120.691 22.4744C122.584 21.7174 124.571 21.7174 126.369 21.9066C129.965 22.1905 133.183 23.1368 135.832 22.7583C138.482 22.4744 140.564 21.5281 141.605 20.3925C142.74 19.257 142.93 18.4053 142.93 18.4053Z" fill="#E8505B"/>
<path d="M64.0071 122.121C64.0071 122.121 64.291 122.121 64.8588 121.932C65.4266 121.743 66.089 121.175 66.5622 120.134C67.0353 119.187 67.13 117.768 66.6568 116.254C66.1836 114.74 65.332 113.226 64.6695 111.333C63.3447 107.642 62.2091 102.816 63.3447 97.6116C63.9125 95.0565 65.0481 92.4068 66.8461 90.1357C67.6977 89.0001 68.8333 87.9592 70.0635 87.1075C71.2937 86.2558 72.7132 85.5934 74.038 85.0256C75.4575 84.4578 76.7823 83.7954 77.8233 82.8491C78.8642 81.9028 79.3374 80.4833 79.2428 79.1585C79.0535 76.4141 77.5394 73.8591 77.634 71.1148C77.634 69.79 78.0126 68.4651 78.675 67.3295C79.2428 66.194 79.9998 65.2477 80.8515 64.396C82.4602 62.6926 84.1636 61.3678 85.6777 60.1376C88.7059 57.6772 90.5985 54.9328 91.0717 52.7563C91.5448 50.5798 90.977 49.3496 91.0717 49.3496C91.0717 49.3496 91.0717 49.4442 91.1663 49.5389C91.1663 49.7281 91.2609 49.9174 91.3556 50.2013C91.4502 50.7691 91.5448 51.6208 91.2609 52.7563C90.977 53.8919 90.5039 55.1221 89.5576 56.447C88.6113 57.7718 87.381 59.0966 85.8669 60.3268C84.3528 61.6517 82.6495 62.9765 81.0408 64.5852C80.2837 65.4369 79.5266 66.3832 78.9589 67.4242C78.3911 68.4651 78.0125 69.6953 78.0125 71.0202C78.0125 72.2504 78.3911 73.5752 78.7696 74.9C79.1481 76.2249 79.6213 77.5497 79.7159 79.0638C79.8105 80.5779 79.2428 82.092 78.1072 83.133C76.9716 84.1739 75.5521 84.8363 74.2273 85.4041C72.8078 85.9719 71.483 86.5397 70.3474 87.3914C69.2118 88.2431 68.1709 89.1894 67.2246 90.3249C65.5212 92.5015 64.3856 95.0565 63.8179 97.6116C62.7769 102.722 63.7232 107.453 65.0481 111.144C65.7105 113.036 66.5622 114.551 67.0353 116.159C67.2246 116.916 67.4138 117.673 67.3192 118.336C67.3192 118.998 67.13 119.661 66.8461 120.134C66.3729 121.175 65.6159 121.743 65.0481 121.932C64.291 122.216 64.0071 122.121 64.0071 122.121Z" fill="#E8505B"/>
</svg>
