<svg width="48" height="49" viewBox="0 0 48 49" fill="none" xmlns="http://www.w3.org/2000/svg">
<rect y="0.0175781" width="48" height="48" rx="18" fill="#EDF0EE"/>
<g clip-path="url(#clip0_636_6012)">
<path d="M24 24.0176C25.1867 24.0176 26.3467 23.6657 27.3334 23.0064C28.3201 22.3471 29.0892 21.41 29.5433 20.3137C29.9974 19.2173 30.1162 18.0109 29.8847 16.847C29.6532 15.6832 29.0818 14.6141 28.2426 13.7749C27.4035 12.9358 26.3344 12.3644 25.1705 12.1329C24.0067 11.9014 22.8003 12.0202 21.7039 12.4743C20.6075 12.9284 19.6705 13.6975 19.0112 14.6842C18.3519 15.6709 18 16.8309 18 18.0176C18.0016 19.6084 18.6342 21.1336 19.7591 22.2585C20.884 23.3833 22.4092 24.016 24 24.0176ZM24 14.0176C24.7911 14.0176 25.5645 14.2522 26.2223 14.6917C26.8801 15.1312 27.3928 15.7559 27.6955 16.4868C27.9983 17.2178 28.0775 18.022 27.9231 18.7979C27.7688 19.5739 27.3878 20.2866 26.8284 20.846C26.269 21.4054 25.5563 21.7864 24.7804 21.9407C24.0044 22.0951 23.2002 22.0159 22.4693 21.7131C21.7384 21.4103 21.1136 20.8977 20.6741 20.2399C20.2346 19.5821 20 18.8087 20 18.0176C20 16.9567 20.4214 15.9393 21.1716 15.1892C21.9217 14.439 22.9391 14.0176 24 14.0176Z" fill="#9CA69D"/>
<path d="M24 26.0176C21.6139 26.0202 19.3262 26.9693 17.639 28.6565C15.9517 30.3438 15.0026 32.6314 15 35.0176C15 35.2828 15.1054 35.5371 15.2929 35.7247C15.4804 35.9122 15.7348 36.0176 16 36.0176C16.2652 36.0176 16.5196 35.9122 16.7071 35.7247C16.8946 35.5371 17 35.2828 17 35.0176C17 33.1611 17.7375 31.3806 19.0503 30.0678C20.363 28.7551 22.1435 28.0176 24 28.0176C25.8565 28.0176 27.637 28.7551 28.9497 30.0678C30.2625 31.3806 31 33.1611 31 35.0176C31 35.2828 31.1054 35.5371 31.2929 35.7247C31.4804 35.9122 31.7348 36.0176 32 36.0176C32.2652 36.0176 32.5196 35.9122 32.7071 35.7247C32.8946 35.5371 33 35.2828 33 35.0176C32.9974 32.6314 32.0483 30.3438 30.361 28.6565C28.6738 26.9693 26.3861 26.0202 24 26.0176Z" fill="#9CA69D"/>
</g>
<defs>
<clipPath id="clip0_636_6012">
<rect width="24" height="24" fill="white" transform="translate(12 12.0176)"/>
</clipPath>
</defs>
</svg>
