<svg width="48" height="49" viewBox="0 0 48 49" fill="none" xmlns="http://www.w3.org/2000/svg">
<rect y="0.0175781" width="48" height="48" rx="18" fill="#EDF0EE"/>
<g clip-path="url(#clip0_636_6022)">
<path d="M31 20.4416V19.0176C31 17.1611 30.2625 15.3806 28.9497 14.0678C27.637 12.7551 25.8565 12.0176 24 12.0176C22.1435 12.0176 20.363 12.7551 19.0503 14.0678C17.7375 15.3806 17 17.1611 17 19.0176V20.4416C16.1094 20.8303 15.3513 21.4701 14.8185 22.2828C14.2857 23.0955 14.0013 24.0458 14 25.0176V31.0176C14.0016 32.3432 14.5289 33.614 15.4662 34.5514C16.4036 35.4887 17.6744 36.016 19 36.0176H29C30.3256 36.016 31.5964 35.4887 32.5338 34.5514C33.4711 33.614 33.9984 32.3432 34 31.0176V25.0176C33.9987 24.0458 33.7143 23.0955 33.1815 22.2828C32.6487 21.4701 31.8906 20.8303 31 20.4416ZM19 19.0176C19 17.6915 19.5268 16.4197 20.4645 15.482C21.4021 14.5444 22.6739 14.0176 24 14.0176C25.3261 14.0176 26.5979 14.5444 27.5355 15.482C28.4732 16.4197 29 17.6915 29 19.0176V20.0176H19V19.0176ZM32 31.0176C32 31.8132 31.6839 32.5763 31.1213 33.1389C30.5587 33.7015 29.7957 34.0176 29 34.0176H19C18.2044 34.0176 17.4413 33.7015 16.8787 33.1389C16.3161 32.5763 16 31.8132 16 31.0176V25.0176C16 24.2219 16.3161 23.4589 16.8787 22.8963C17.4413 22.3336 18.2044 22.0176 19 22.0176H29C29.7957 22.0176 30.5587 22.3336 31.1213 22.8963C31.6839 23.4589 32 24.2219 32 25.0176V31.0176Z" fill="#9CA69D"/>
<path d="M24 26.0176C23.7348 26.0176 23.4804 26.1229 23.2929 26.3105C23.1054 26.498 23 26.7524 23 27.0176V29.0176C23 29.2828 23.1054 29.5371 23.2929 29.7247C23.4804 29.9122 23.7348 30.0176 24 30.0176C24.2652 30.0176 24.5196 29.9122 24.7071 29.7247C24.8946 29.5371 25 29.2828 25 29.0176V27.0176C25 26.7524 24.8946 26.498 24.7071 26.3105C24.5196 26.1229 24.2652 26.0176 24 26.0176Z" fill="#9CA69D"/>
</g>
<defs>
<clipPath id="clip0_636_6022">
<rect width="24" height="24" fill="white" transform="translate(12 12.0176)"/>
</clipPath>
</defs>
</svg>
