<svg width="24" height="25" viewBox="0 0 24 25" fill="none" xmlns="http://www.w3.org/2000/svg">
<path d="M13.121 6.31036C12.9335 6.49789 12.8282 6.7522 12.8282 7.01736C12.8282 7.28253 12.9335 7.53684 13.121 7.72436L16.413 11.0174L6 11.0244C5.73478 11.0244 5.48043 11.1297 5.29289 11.3173C5.10536 11.5048 5 11.7591 5 12.0244C5 12.2896 5.10536 12.5439 5.29289 12.7315C5.48043 12.919 5.73478 13.0244 6 13.0244L16.414 13.0174L13.121 16.3104C13.0255 16.4026 12.9493 16.513 12.8969 16.635C12.8445 16.757 12.8169 16.8882 12.8157 17.021C12.8146 17.1537 12.8399 17.2854 12.8902 17.4083C12.9405 17.5312 13.0147 17.6429 13.1086 17.7368C13.2025 17.8307 13.3141 17.9049 13.437 17.9552C13.5599 18.0055 13.6916 18.0308 13.8244 18.0296C13.9572 18.0285 14.0884 18.0009 14.2104 17.9485C14.3324 17.8961 14.4428 17.8199 14.535 17.7244L18.121 14.1394C18.3996 13.8608 18.6207 13.53 18.7715 13.166C18.9222 12.802 18.9999 12.4119 18.9999 12.0179C18.9999 11.6239 18.9222 11.2337 18.7715 10.8697C18.6207 10.5057 18.3996 10.1749 18.121 9.89636L14.535 6.31036C14.3475 6.12289 14.0932 6.01758 13.828 6.01758C13.5628 6.01758 13.3085 6.12289 13.121 6.31036Z" fill="#9CA69D"/>
</svg>
